P3
4 2
255
178 178 178   178 178 111   178 111 178   111 178 178
111 111 178   111 178 111   178 111 111   111 111 111